<?xml version="1.0" encoding="UTF-8"?>
<svg viewBox="0 0 32 32" xmlns="http://www.w3.org/2000/svg">
<defs>
<linearGradient id="c" x1=".511" x2=".546" y1="-.1" y2="1.179">
<stop stop-color="#5597fe" offset="0"/>
<stop stop-color="#458efb" offset=".527"/>
<stop stop-color="#1776f2" offset="1"/>
</linearGradient>
<linearGradient id="b" x1=".487" x2=".452" y1="-.11" y2="2.027">
<stop stop-color="#5597fe" offset="0"/>
<stop stop-color="#1776f2" offset="1"/>
</linearGradient>
<linearGradient id="a" x1="1.154" x2=".213" y1=".251" y2=".567">
<stop stop-color="#70a7fd" offset="0"/>
<stop stop-color="#69a3fc" offset=".055"/>
<stop stop-color="#1d77f7" offset=".816"/>
<stop stop-color="#0066f5" offset="1"/>
</linearGradient>
</defs>
<g transform="translate(-280.23 -22.234)" data-name="Group 2368">
<path transform="translate(287.9 22.234)" d="M21.021.875A6.477,6.477,0,0,1,23.443,9.79L12.35,28.736a6.669,6.669,0,0,1-9.04,2.389A6.477,6.477,0,0,1,.888,22.21L11.98,3.264A6.669,6.669,0,0,1,21.021.875Z" fill="url(#c)" data-name="Path 26949"/>
<path transform="translate(280.23 28.072)" d="M3.31.875a6.669,6.669,0,0,1,9.04,2.389l7.674,13.108A6.477,6.477,0,0,1,17.6,25.287,6.669,6.669,0,0,1,8.562,22.9L.888,9.79A6.477,6.477,0,0,1,3.31.875Z" fill="url(#b)" data-name="Path 26950"/>
<path transform="translate(-1028.3 -314.48)" d="M1328.667,365.214a6.441,6.441,0,0,0-.134-6.289l-5.733-9.793.622-1.062,6.354,10.855a6.429,6.429,0,0,1,.878,2.894Z" fill="url(#a)" data-name="Path 25568"/>
</g>
</svg>
